<?xml version="1.0" standalone="no"?>
<!DOCTYPE svg PUBLIC "-//W3C//DTD SVG 1.1//EN" "http://www.w3.org/Graphics/SVG/1.1/DTD/svg11.dtd" >
<svg xmlns="http://www.w3.org/2000/svg">
<metadata>
This is a custom SVG webfont generated by Font Squirrel.
Copyright   :  ITC Franklin Gothic is a trademark of The International Typeface Corporation which may be registered in certain jurisdictions Portions copyright Microsoft Corporation  All rights reserved
Designer    : Victor Caruso  Font Bureau
Foundry     : International Typeface Corporation
Foundry URL : httpwwwitcfontscom
</metadata>
<defs>
<font id="FranklinGothicDemiCondRegular" horiz-adv-x="1047" >
<font-face units-per-em="2048" ascent="1638" descent="-410" />
<missing-glyph horiz-adv-x="382" />
<glyph unicode=" "  horiz-adv-x="382" />
<glyph unicode="&#x09;" horiz-adv-x="382" />
<glyph unicode="&#xa0;" horiz-adv-x="382" />
<glyph unicode="!" horiz-adv-x="698" d="M169 1365h360l-89 -958h-183zM209 0v302h279v-302h-279z" />
<glyph unicode="&#x22;" d="M200 1365h264l-38 -600h-187zM584 1365h264l-38 -600h-188z" />
<glyph unicode="#" d="M20 419l25 167h184l33 219h-184l25 165h184l60 395h177l-60 -395h202l60 395h177l-60 -395h184l-25 -165h-184l-33 -219h184l-25 -167h-184l-64 -419h-176l63 419h-203l-63 -419h-177l64 419h-184zM406 586h202l33 219h-202z" />
<glyph unicode="$" d="M73 388l238 62q33 -201 219 -201q87 0 128 43t41 104q0 63 -41 95.5t-182 82.5q-127 44 -198.5 87t-116 120.5t-44.5 180.5q0 135 79.5 243t250.5 132v142h154v-142q258 -31 334 -292l-212 -87q-62 179 -192 179q-65 0 -104.5 -40t-39.5 -97q0 -58 38 -89t163 -77 q137 -50 215 -94.5t124.5 -123t46.5 -183.5q0 -161 -96 -268.5t-277 -126.5v-184h-154v183q-302 31 -374 351z" />
<glyph unicode="%" horiz-adv-x="1361" d="M56 1021q0 172 71.5 261.5t198.5 89.5t198.5 -90t71.5 -261t-72 -261t-198 -90q-125 0 -197.5 88t-72.5 263zM250 1021q0 -128 19.5 -164t56.5 -36q40 0 57.5 41.5t17.5 158.5q0 128 -19.5 164t-55.5 36q-40 0 -58 -40t-18 -160zM283 0l645 1365h154l-644 -1365h-155z M765 344q0 172 72.5 261.5t197.5 89.5q124 0 197 -88t73 -263q0 -172 -72 -261.5t-198 -89.5t-198 90t-72 261zM960 344q0 -127 19.5 -163.5t55.5 -36.5q41 0 58.5 41.5t17.5 158.5q0 128 -19.5 164t-56.5 36q-40 0 -57.5 -41t-17.5 -159z" />
<glyph unicode="&#x26;" horiz-adv-x="1326" d="M94 382q0 263 310 394q-127 174 -127 306q0 123 100.5 213.5t259.5 90.5q161 0 255.5 -94t94.5 -232q0 -206 -236 -328l189 -251q65 106 106 300l223 -40q-55 -242 -186 -437q71 -74 139 -74q9 0 47 2v-232q-56 -14 -104 -14q-142 0 -265 129q-167 -136 -371 -136 q-226 0 -330.5 121t-104.5 282zM379 400q0 -86 51 -141t144 -55q109 0 191 80l-247 334q-139 -84 -139 -218zM545 1084q0 -73 90 -196q123 69 123 188q0 48 -26.5 81.5t-79.5 33.5q-51 0 -79 -30t-28 -77z" />
<glyph unicode="'" horiz-adv-x="698" d="M217 1365h264l-38 -600h-187z" />
<glyph unicode="(" horiz-adv-x="698" d="M103 512q0 486 248 853h220q-208 -387 -208 -853t208 -854h-220q-248 369 -248 854z" />
<glyph unicode=")" horiz-adv-x="698" d="M126 -342q96 172 152 403.5t56 450.5q0 218 -56 449.5t-152 403.5h221q247 -370 247 -853t-247 -854h-221z" />
<glyph unicode="*" d="M172 904l223 98l-223 99l83 153l207 -140l-25 251h171l-24 -251l207 140l83 -153l-223 -99l223 -98l-83 -153l-207 140l24 -251h-171l25 251l-207 -140z" />
<glyph unicode="+" d="M105 574v217h306v310h225v-310h306v-217h-306v-310h-225v310h-306z" />
<glyph unicode="," horiz-adv-x="523" d="M122 0v302h279v-275l-169 -350h-110l131 323h-131z" />
<glyph unicode="-" horiz-adv-x="558" d="M76 407v221h407v-221h-407z" />
<glyph unicode="." horiz-adv-x="523" d="M122 0v302h279v-302h-279z" />
<glyph unicode="/" horiz-adv-x="1081" d="M-40 -342l832 1707h190l-832 -1707h-190z" />
<glyph unicode="0" d="M67 665q0 372 106.5 546.5t349.5 174.5q251 0 353.5 -181.5t102.5 -505.5q0 -370 -106.5 -545t-349.5 -175q-251 0 -353.5 181.5t-102.5 504.5zM383 683q0 -333 31.5 -409t108.5 -76q74 0 106.5 71.5t32.5 413.5q0 310 -28 397.5t-111 87.5q-75 0 -107.5 -74t-32.5 -411z " />
<glyph unicode="1" d="M204 0v223h230v806q-102 -106 -230 -171v267q183 96 301 252h229v-1154h226v-223h-756z" />
<glyph unicode="2" d="M57 939q67 447 452 447q208 0 316.5 -115.5t108.5 -282.5q0 -172 -120 -336.5t-451 -384.5h590l-22 -267h-874v267q375 321 468 453.5t93 251.5q0 170 -128 170q-77 0 -112.5 -67t-47.5 -191z" />
<glyph unicode="3" d="M33 383l265 44q20 -204 178 -204q73 0 116 49t43 140q0 186 -210 186l-83 -1v221h83q67 0 105 12.5t63.5 52.5t25.5 105q0 166 -137 166q-120 0 -157 -168l-261 49q103 351 450 351q190 0 296.5 -98.5t106.5 -267.5q0 -216 -203 -304q230 -73 230 -325q0 -202 -126 -307 t-321 -105q-175 0 -304 92t-160 312z" />
<glyph unicode="4" d="M51 321v233l465 832h326v-832h153v-233h-153v-321h-300v321h-491zM263 538h303v562z" />
<glyph unicode="5" d="M69 365l273 45q23 -187 177 -187q169 0 169 221q0 98 -45 158.5t-129 60.5q-110 0 -150 -106l-235 45l48 763h730l-29 -267h-482l-17 -308q85 117 233 117q146 0 256.5 -107t110.5 -340q0 -238 -127 -359.5t-331 -121.5q-190 0 -312 105t-140 281z" />
<glyph unicode="6" d="M105 665q0 371 125 546t346 175q161 0 266 -91.5t139 -271.5l-243 -73q-33 218 -171 218q-86 0 -134 -88.5t-51 -373.5q84 155 250 155q151 0 254 -114.5t103 -313.5q0 -223 -121 -338.5t-310 -115.5q-453 0 -453 686zM395 413q0 -109 41.5 -162.5t109.5 -53.5 q152 0 152 236q0 209 -148 209q-155 0 -155 -229z" />
<glyph unicode="7" d="M118 1098l23 267h811v-230q-326 -421 -331 -1135h-326q8 625 400 1098h-577z" />
<glyph unicode="8" d="M60 355q0 99 46.5 174.5t176.5 143.5q-184 116 -184 321q0 160 108 276t327 116q208 0 311.5 -96.5t103.5 -252.5q0 -191 -174 -292q211 -124 211 -354q0 -172 -121 -292t-356 -120q-226 0 -337.5 105t-111.5 271zM325 375q0 -86 52 -137.5t143 -51.5q85 0 135 47t50 112 q0 53 -41.5 105t-207.5 125q-131 -80 -131 -200zM381 1042q0 -78 69.5 -127t143.5 -80q97 92 97 188q0 75 -39.5 121.5t-112.5 46.5q-70 0 -114 -42t-44 -107z" />
<glyph unicode="9" d="M58 941q0 182 108 313.5t324 131.5q190 0 288 -101.5t131.5 -258t33.5 -320.5q0 -727 -459 -727q-319 0 -395 333l261 51q26 -166 146 -166q168 0 168 389l-1 42q-80 -123 -238 -123q-178 0 -272.5 135.5t-94.5 300.5zM348 959q0 -210 152 -210t152 209q0 100 -42 155 t-114 55q-61 0 -104.5 -52t-43.5 -157z" />
<glyph unicode=":" horiz-adv-x="523" d="M122 0v302h279v-302h-279zM122 708v302h279v-303z" />
<glyph unicode=";" horiz-adv-x="523" d="M122 0v302h279v-275l-169 -350h-110l131 323h-131zM122 708v302h279v-303z" />
<glyph unicode="&#x37e;" horiz-adv-x="523" d="M122 0v302h279v-275l-169 -350h-110l131 323h-131zM122 708v302h279v-303z" />
<glyph unicode="&#x3c;" d="M80 555v256l887 465v-304l-564 -290l563 -291l1 -302z" />
<glyph unicode="=" d="M105 407v216h837v-216h-837zM105 742v216h837v-216h-837z" />
<glyph unicode="&#x3e;" d="M80 89v304l564 290l-562 291l-2 302l887 -466v-256z" />
<glyph unicode="?" horiz-adv-x="977" d="M59 932q4 203 112 328.5t307 125.5q210 0 306 -115t96 -268q0 -119 -46 -199.5t-155 -177.5q-77 -69 -93.5 -104.5t-16.5 -130.5h-240v45q0 125 13.5 179.5t103.5 142.5q75 73 103.5 125.5t28.5 125.5q0 67 -35 100t-82 33q-145 0 -146 -246zM315 0v291h268v-291h-268z " />
<glyph unicode="@" horiz-adv-x="1291" d="M38 677q0 318 176.5 525.5t464.5 207.5q275 0 425.5 -172.5t150.5 -440.5q0 -228 -108.5 -374.5t-245.5 -146.5q-117 0 -151 116q-62 -118 -176 -118q-92 0 -151.5 92t-59.5 247q0 187 84.5 314t205.5 127q100 0 148 -105l13 91h138l-58 -418q-11 -81 -11 -120 q0 -71 45 -71q61 0 110.5 100.5t49.5 244.5q0 227 -106 355.5t-303 128.5q-202 0 -333 -154.5t-131 -422.5q0 -256 126.5 -414t360.5 -158q193 0 355 110l55 -133q-198 -128 -419 -128q-295 0 -475 195.5t-180 521.5zM549 615q0 -155 77 -155q108 0 108 272q0 136 -70 136 q-49 0 -82 -68.5t-33 -184.5z" />
<glyph unicode="A" d="M-40 0l410 1365h302l390 -1365h-307l-68 282h-384l-67 -282h-276zM360 516h270l-137 557z" />
<glyph unicode="B" horiz-adv-x="1151" d="M129 0v1365h466q164 0 247.5 -26t140 -114t56.5 -219q0 -229 -195 -294q232 -82 232 -335q0 -133 -63 -224.5t-155.5 -122t-262.5 -30.5h-466zM417 235h147q207 0 207 178q0 99 -51.5 139.5t-155.5 40.5h-147v-358zM417 814h97q145 0 182.5 52t37.5 119q0 62 -37.5 110.5 t-160.5 48.5h-119v-330z" />
<glyph unicode="C" horiz-adv-x="1117" d="M80 681q0 331 131 518t389 187q427 0 465 -528l-274 -20q-11 304 -190 304q-94 0 -149.5 -98t-55.5 -380q0 -252 51 -346.5t153 -94.5q164 0 193 274l277 -17q-15 -222 -141 -361.5t-333 -139.5q-252 0 -384 187t-132 515z" />
<glyph unicode="D" horiz-adv-x="1151" d="M129 0v1365h323q210 0 341.5 -56.5t210.5 -208.5t79 -411q0 -184 -48 -326.5t-126 -224.5t-176 -110t-245 -28h-359zM429 235h51q104 0 161 40t91 139.5t34 287.5q0 174 -37.5 268t-94 127.5t-154.5 33.5h-51v-896z" />
<glyph unicode="E" horiz-adv-x="977" d="M129 0v1365h830v-234h-530v-317h412v-235h-412v-335h530v-244h-830z" />
<glyph unicode="F" horiz-adv-x="907" d="M129 0v1365h810v-234h-510v-357h393v-234h-393v-540h-300z" />
<glyph unicode="G" horiz-adv-x="1187" d="M80 656q0 337 134.5 533.5t397.5 196.5q419 0 470 -468l-270 -44q-28 268 -194 268q-101 0 -161.5 -99t-60.5 -375q0 -245 59 -345t173 -100q183 0 184 270h-204v235h474v-728h-127l-39 156q-110 -177 -330 -177q-233 0 -369.5 183.5t-136.5 493.5z" />
<glyph unicode="H" horiz-adv-x="1186" d="M129 0v1365h300v-551h328v551h300v-1365h-300v558h-328v-558h-300z" />
<glyph unicode="I" horiz-adv-x="558" d="M129 0v1365h300v-1365h-300z" />
<glyph unicode="J" horiz-adv-x="663" d="M-10 0v251q72 -14 121 -14q79 0 104.5 42.5t25.5 179.5v906h300v-906q0 -173 -25.5 -269.5t-105.5 -153.5t-237 -57q-68 0 -183 21z" />
<glyph unicode="K" horiz-adv-x="1081" d="M129 0v1365h300v-569l332 569h303l-342 -502l371 -863h-310l-240 629l-114 -165v-464h-300z" />
<glyph unicode="L" horiz-adv-x="872" d="M129 0v1365h300v-1109h440v-256h-740z" />
<glyph unicode="M" horiz-adv-x="1535" d="M129 0v1365h440l193 -843l217 843h427v-1365h-281v1143l-279 -1143h-218l-255 1143v-1143h-244z" />
<glyph unicode="N" horiz-adv-x="1151" d="M118 0v1365h333l351 -848v848h232v-1365h-268l-416 988v-988h-232z" />
<glyph unicode="O" horiz-adv-x="1151" d="M80 683q0 703 495 703q242 0 369 -176t127 -527q0 -704 -495 -704q-246 0 -371 179.5t-125 524.5zM396 683q0 -270 42.5 -365t136.5 -95q93 0 136.5 91t43.5 369q0 276 -43 367.5t-137 91.5q-93 0 -136 -92t-43 -367z" />
<glyph unicode="P" d="M129 0v1365h393q179 0 277.5 -30t165.5 -135.5t67 -261.5q0 -150 -54 -248t-149.5 -141.5t-293.5 -43.5h-106v-505h-300zM429 740h93q123 0 158.5 57t35.5 148q0 77 -27.5 124.5t-64 61t-102.5 13.5h-93v-404z" />
<glyph unicode="Q" horiz-adv-x="1151" d="M80 683q0 703 495 703q245 0 370.5 -178t125.5 -513q0 -241 -55.5 -403.5t-194.5 -252.5q1 -59 25 -80.5t73 -21.5q46 0 102 15v-216q-65 -18 -128 -18q-256 0 -272 263q-37 -2 -57 -2q-221 0 -352.5 169.5t-131.5 534.5zM396 683q0 -270 42.5 -365t136.5 -95 q93 0 136.5 91t43.5 369q0 276 -43 367.5t-137 91.5q-93 0 -136 -92t-43 -367z" />
<glyph unicode="R" horiz-adv-x="1116" d="M129 0v1365h429q125 0 191.5 -11.5t134.5 -62t106.5 -138t38.5 -196.5q0 -256 -192 -360l251 -597h-327l-182 540h-150v-540h-300zM429 761h132q176 0 176 197q0 68 -26 111.5t-60.5 59t-101.5 15.5h-120v-383z" />
<glyph unicode="S" d="M33 354l262 75q48 -206 219 -206q78 0 126.5 40.5t48.5 106.5q0 50 -34 89.5t-156 83.5q-157 56 -234 101.5t-127 130t-50 192.5q0 184 118.5 301.5t313.5 117.5q356 0 444 -318l-248 -95q-53 169 -194 169q-66 0 -104.5 -37.5t-38.5 -87.5q0 -58 45.5 -92.5t190.5 -90.5 q132 -49 207.5 -97t122 -130.5t46.5 -191.5q0 -191 -131.5 -313.5t-352.5 -122.5q-371 0 -474 375z" />
<glyph unicode="T" horiz-adv-x="802" d="M-24 1109v256h851v-256h-279v-1109h-300v1109h-272z" />
<glyph unicode="U" horiz-adv-x="1186" d="M129 585v780h300v-780q0 -165 15 -230t62.5 -98.5t116.5 -33.5q75 0 119 37t54 98t10 227v780h251v-768q0 -230 -26.5 -343t-135 -194t-298.5 -81q-178 0 -280 59.5t-145 167t-43 379.5z" />
<glyph unicode="V" horiz-adv-x="942" d="M-28 1365h315l210 -1040l217 1040h257l-335 -1372l-336 7z" />
<glyph unicode="W" horiz-adv-x="1465" d="M-11 1365h307l143 -945l179 945h275l168 -947l167 947h253l-293 -1372h-269l-182 949l-186 -949h-266z" />
<glyph unicode="X" horiz-adv-x="977" d="M-31 0l375 700l-334 665h334l163 -355l172 355h287l-322 -617l364 -748h-329l-199 446l-224 -446h-287z" />
<glyph unicode="Y" horiz-adv-x="907" d="M-58 1365h330l193 -498l206 498h293l-379 -788v-577h-300v577z" />
<glyph unicode="Z" horiz-adv-x="942" d="M2 0v209l575 912h-533v244h877v-213l-571 -908h589v-244h-937z" />
<glyph unicode="[" horiz-adv-x="698" d="M150 -342v1707h421v-128h-172v-1451h172v-128h-421z" />
<glyph unicode="\" horiz-adv-x="1082" d="M99 1365h190l832 -1707h-189z" />
<glyph unicode="]" horiz-adv-x="698" d="M127 -214h172v1451h-172v128h421v-1707h-421v128z" />
<glyph unicode="^" horiz-adv-x="1024" d="M31 718l311 655h339l311 -655h-270l-210 449l-211 -449h-270z" />
<glyph unicode="_" horiz-adv-x="1024" d="M0 -116h1024v-182h-1024v182z" />
<glyph unicode="`" horiz-adv-x="942" d="M198 1350l112 167l341 -314l-84 -84z" />
<glyph unicode="a" horiz-adv-x="977" d="M73 255q0 169 112 261.5t408 110.5v38q0 101 -20.5 140t-79.5 39q-108 0 -119 -155l-267 26q19 152 129.5 234t278.5 82q142 0 228 -54.5t108.5 -126.5t22.5 -223v-403q0 -188 17 -224h-261q-14 41 -14 155q-93 -176 -277 -176q-118 0 -192 70.5t-74 205.5zM365 292 q0 -128 94 -128q51 0 92.5 57.5t41.5 211.5v50q-123 -14 -175.5 -54.5t-52.5 -136.5z" />
<glyph unicode="b" horiz-adv-x="977" d="M104 0v1365h277v-450q82 109 210 109q140 0 233 -126t93 -387q0 -251 -91 -391.5t-266 -140.5q-172 0 -236 153q-29 -52 -53 -132h-167zM381 419q0 -139 26 -192t92 -53q73 0 100 75.5t27 254.5q0 173 -26 253t-96 80q-123 0 -123 -185v-233z" />
<glyph unicode="c" horiz-adv-x="907" d="M60 502q0 258 108.5 393t304.5 135q354 0 385 -392l-262 -10q-6 93 -30 140.5t-81 47.5q-142 0 -142 -298q0 -173 34.5 -242t102.5 -69q106 0 116 187l262 -17q-35 -398 -396 -398q-195 0 -298.5 131.5t-103.5 391.5z" />
<glyph unicode="d" horiz-adv-x="977" d="M61 501q0 263 91.5 393t244.5 130q141 0 201 -108v449h277v-1365h-261v167q-64 -181 -230 -181q-163 0 -243 142t-80 373zM353 477q0 -164 28 -230t92 -66q54 0 89.5 44.5t35.5 182.5v179q0 149 -31.5 199.5t-91.5 50.5q-71 0 -96.5 -70t-25.5 -290z" />
<glyph unicode="e" horiz-adv-x="942" d="M60 490q0 263 113.5 401.5t304.5 138.5q172 0 287.5 -122.5t115.5 -449.5h-530v-56q0 -136 37 -182t97 -46q129 0 145 173l251 -16q-67 -352 -401 -352q-206 0 -313 139t-107 372zM353 621h262q1 18 1 28q0 195 -132 195q-130 0 -131 -223z" />
<glyph unicode="f" horiz-adv-x="593" d="M37 788v222h115q1 149 23 223t95 130t199 56q74 0 142 -10v-220q-34 4 -63 4q-81 0 -103.5 -34.5t-22.5 -148.5h178v-222h-178v-788h-270v788h-115z" />
<glyph unicode="g" horiz-adv-x="942" d="M43 -116q0 133 165 188q-132 62 -132 175q0 130 174 222q-150 74 -150 252q0 151 103.5 230t276.5 79q115 0 216 -44q11 108 54 154t135 46q44 0 78 -10v-184q-32 8 -61 8q-88 0 -107 -91q75 -79 75 -202q0 -137 -102 -219.5t-264 -82.5q-62 0 -131 17q-66 -36 -66 -83 q0 -38 37 -50t202 -21q152 -9 227.5 -30t126 -86t50.5 -171q0 -338 -493 -338q-414 0 -414 241zM275 -78q0 -102 232 -102q199 0 199 106q0 39 -21.5 63.5t-55 31t-140.5 11.5q-63 4 -125 12q-89 -41 -89 -122zM391 709q0 -153 97 -153q49 0 70 36t21 124q0 163 -89 163 q-54 0 -76.5 -39.5t-22.5 -130.5z" />
<glyph unicode="h" horiz-adv-x="977" d="M104 0v1365h282v-462q76 128 248 128q103 0 162.5 -48t75.5 -121.5t16 -213.5v-648h-282v648q0 99 -18.5 131.5t-76.5 32.5q-57 0 -91 -31t-34 -141v-640h-282z" />
<glyph unicode="i" horiz-adv-x="488" d="M101 1093v279h286v-279h-286zM103 0v1010h282v-1010h-282z" />
<glyph unicode="j" horiz-adv-x="488" d="M-17 -125q21 -3 37 -3q62 0 77.5 31t15.5 138v969h282v-977q0 -156 -17 -234t-81 -123.5t-163 -45.5q-63 0 -151 14v231zM111 1093v279h286v-279h-286z" />
<glyph unicode="k" horiz-adv-x="942" d="M104 0v1365h282v-745l284 390h256l-255 -339l280 -671h-304l-158 469l-103 -142v-327h-282z" />
<glyph unicode="l" horiz-adv-x="488" d="M103 0v1365h282v-1365h-282z" />
<glyph unicode="m" horiz-adv-x="1430" d="M104 0v1010h267v-138q72 158 245 158q180 0 218 -158q68 158 245 158q99 0 157.5 -36t81.5 -98.5t23 -235.5v-660h-281v631q0 113 -16 147t-71 34q-66 0 -86 -44.5t-20 -179.5v-588h-282v640q0 108 -15.5 140t-70.5 32q-68 0 -90.5 -46.5t-22.5 -177.5v-588h-282z" />
<glyph unicode="n" horiz-adv-x="977" d="M104 0v1010h267v-138q70 158 253 158q99 0 163.5 -44.5t82.5 -113.5t18 -210v-662h-282v662q0 102 -26 126t-70 24q-76 0 -100 -46.5t-24 -173.5v-592h-282z" />
<glyph unicode="o" horiz-adv-x="942" d="M61 505q0 525 411 525q410 0 410 -525q0 -526 -410 -526q-411 0 -411 526zM352 505q0 -185 24 -257t96 -72q69 0 94 71.5t25 257.5q0 193 -26.5 261t-92.5 68q-64 0 -92 -64.5t-28 -264.5z" />
<glyph unicode="p" horiz-adv-x="977" d="M104 -342v1352h260v-151q83 164 230 164q139 0 231 -123.5t92 -377.5q0 -266 -90 -401t-253 -135q-117 0 -193 89v-417h-277zM381 413q0 -145 23.5 -188.5t95.5 -43.5q64 0 95 58t31 281q0 186 -27 252t-91 66q-53 0 -90 -41.5t-37 -192.5v-191z" />
<glyph unicode="q" horiz-adv-x="977" d="M61 489q0 286 93.5 410.5t247.5 124.5q151 0 240 -145q45 50 77 131h155q-9 -75 -9 -258v-1094h-277v447q-79 -119 -207 -119q-143 0 -231.5 132.5t-88.5 370.5zM351 529q0 -222 26 -285t93 -63q55 0 86.5 51.5t31.5 226.5v149q0 140 -29.5 185t-89.5 45 q-69 0 -93.5 -55.5t-24.5 -253.5z" />
<glyph unicode="r" horiz-adv-x="628" d="M104 0v1010h248v-244q67 257 239 257q21 0 48 -5v-275q-31 4 -47 4q-206 0 -206 -312v-435h-282z" />
<glyph unicode="s" horiz-adv-x="837" d="M39 280l224 36q28 -151 159 -151q112 0 112 94q0 50 -33 76t-128 56q-174 56 -239 135t-65 183q0 146 102.5 234t256.5 88q269 0 342 -264l-201 -60q-40 137 -148 137q-88 0 -88 -88q0 -50 33 -76t136 -62q116 -41 170 -72t91 -93.5t37 -143.5q0 -140 -101 -235t-282 -95 q-341 0 -378 301z" />
<glyph unicode="t" horiz-adv-x="628" d="M34 788v222h112v310l274 9v-319h186v-222h-186v-371q0 -103 4.5 -133.5t30 -51t85.5 -20.5q32 0 80 2v-214q-94 -21 -172 -21q-128 0 -196 49t-87 123t-19 235v402h-112z" />
<glyph unicode="u" horiz-adv-x="977" d="M90 353v657h282v-648q0 -98 18 -131t78 -33q55 0 83.5 27t34.5 74.5t6 195.5v515h282v-1010h-265v138q-60 -103 -119.5 -131t-140.5 -28q-109 0 -167 45t-75 114t-17 215z" />
<glyph unicode="v" horiz-adv-x="733" d="M-22 1010h271l139 -597l141 597h234l-277 -1010h-223z" />
<glyph unicode="w" horiz-adv-x="1186" d="M-17 1010h274l119 -614l113 614h274l92 -614l136 614h221l-253 -1010h-236l-130 687l-127 -687h-229z" />
<glyph unicode="x" horiz-adv-x="768" d="M-50 0l299 517l-260 493h306l107 -234l130 234h245l-261 -446l301 -564h-305l-148 302l-169 -302h-245z" />
<glyph unicode="y" horiz-adv-x="733" d="M-28 1010h282l136 -617l131 617h243l-304 -1026q-44 -147 -75 -206t-93 -97.5t-158 -38.5q-59 0 -120 16v222q42 -6 79 -6q82 0 112.5 27t57.5 118z" />
<glyph unicode="z" horiz-adv-x="733" d="M41 0v200l366 610h-331v200h630v-181l-375 -629h385v-200h-675z" />
<glyph unicode="{" horiz-adv-x="698" d="M88 442v167q70 2 85 30.5t15 181.5v232q0 197 57.5 255t206.5 58q30 0 94 -3v-134q-73 -2 -92.5 -29.5t-19.5 -146.5v-223q0 -182 -18 -226.5t-102 -78.5q83 -33 101.5 -78t18.5 -227v-250q0 -118 19 -145t93 -31v-134q-70 -2 -93 -2q-93 0 -139.5 13.5t-86 72 t-39.5 226.5v352q-1 69 -19.5 93t-80.5 27z" />
<glyph unicode="|" horiz-adv-x="1024" d="M358 -341v1706h307v-1706h-307z" />
<glyph unicode="}" horiz-adv-x="698" d="M151 -340v134q74 4 93 30.5t19 145.5v250q0 182 18 226.5t102 78.5q-83 33 -101.5 78t-18.5 227v223q0 118 -19 146t-93 30v134q70 3 92 3q119 0 164 -24t73.5 -83t28.5 -206v-232l1 -92q0 -70 18.5 -94t80.5 -26v-167q-52 -1 -73 -20t-24 -48t-3 -145v-259 q0 -135 -25 -199t-77 -88.5t-161 -24.5q-29 0 -95 2z" />
<glyph unicode="~" horiz-adv-x="1365" d="M190 1255q112 279 305 279q69 0 231 -70q120 -52 157 -52q83 0 148 127l149 -124q-105 -274 -321 -274q-62 0 -227 72q-103 45 -150 45q-78 0 -143 -127z" />
<glyph unicode="&#xa1;" horiz-adv-x="698" d="M169 -356l88 958h183l89 -958h-360zM209 707v303l279 -1v-302h-279z" />
<glyph unicode="&#xa2;" d="M137 683q0 220 86 357t243 148v184h147v-185q267 -36 298 -364l-236 -15q-12 183 -129 183q-68 0 -97.5 -63t-29.5 -229q0 -172 30.5 -230t94.5 -58q47 0 82 32t49 148l236 -21q-45 -331 -298 -368v-216h-147v216q-172 28 -250.5 165t-78.5 316z" />
<glyph unicode="&#xa3;" d="M17 0v232h105q72 0 105.5 20t59 84t25.5 184q0 49 -6 106h-157v209h122q-12 102 -12 163q0 176 96.5 282t276.5 106q278 0 345 -258l-217 -103q-32 143 -127 143q-91 0 -91 -141q0 -33 8 -123q5 -53 6 -69h229v-209h-201q1 -33 1 -52q0 -142 -43 -214t-109 -128h151 q154 0 210 56t85 149l221 -83q-25 -110 -66.5 -179.5t-101.5 -108t-129.5 -52.5t-218.5 -14h-567z" />
<glyph unicode="&#xa4;" d="M75 1001l150 150l133 -133q78 41 165 41q90 0 170 -43l132 132l143 -143l-132 -132q43 -80 43 -170q0 -85 -41 -165l133 -133l-150 -150l-133 133q-82 -41 -165 -41q-88 0 -169 43l-133 -132l-143 143l132 133q-43 81 -43 169q0 87 41 165zM364 703q0 -66 46.5 -112.5 t112.5 -46.5t112.5 47t46.5 112t-46.5 112t-112.5 47q-65 0 -112 -46.5t-47 -112.5z" />
<glyph unicode="&#xa5;" d="M49 1365h291l204 -555l219 555h235l-225 -532h205v-149h-269l-52 -123h321v-149h-321v-412h-270v412h-307v149h307l-52 123h-255v149h193z" />
<glyph unicode="&#xa6;" horiz-adv-x="1024" d="M358 314h307v-655h-307v655zM358 646v719h307v-719h-307z" />
<glyph unicode="&#xa7;" d="M108 -32l233 40q31 -157 190 -157q153 0 153 136q0 67 -50 107.5t-220 114.5q-95 42 -147 78.5t-87.5 102t-35.5 148.5q0 184 157 275q-111 94 -111 238q0 150 96.5 242.5t272.5 92.5q299 0 380 -256l-209 -64q-34 134 -158 134q-64 0 -97 -32.5t-33 -80.5q0 -53 33 -81 t165 -89q153 -70 218.5 -144t65.5 -202q0 -160 -136 -269q147 -101 147 -282q0 -167 -109 -265.5t-300 -98.5q-349 0 -418 312zM378 608q0 -54 34.5 -92.5t159.5 -94.5q53 -23 73 -33q55 48 55 121q0 53 -34 86t-146 90q-66 33 -85 44q-57 -51 -57 -121z" />
<glyph unicode="&#xa8;" horiz-adv-x="942" d="M188 1269q0 45 33.5 76.5t80.5 31.5t80.5 -31.5t33.5 -76.5q0 -47 -35.5 -77t-78.5 -30q-41 0 -77.5 29t-36.5 78zM526 1269q0 45 33.5 76.5t80.5 31.5q48 0 81 -31.5t33 -76.5q0 -48 -36 -77.5t-78 -29.5q-43 0 -78.5 30t-35.5 77z" />
<glyph unicode="&#xa9;" horiz-adv-x="1595" d="M82 683q0 291 210.5 499t504.5 208q295 0 505.5 -208t210.5 -499q0 -292 -210.5 -500t-505.5 -208t-505 208t-210 500zM257 683q0 -228 158.5 -388.5t381.5 -160.5t382 161.5t159 387.5q0 227 -158.5 387.5t-382.5 160.5q-222 0 -381 -161t-159 -387zM466 676 q0 206 89.5 317t262.5 111q292 0 316 -329l-205 -14q-7 179 -111 179q-119 0 -119 -268q0 -140 29 -193.5t90 -53.5q96 0 113 161l207 -12q-8 -140 -94.5 -226.5t-228.5 -86.5q-161 0 -255 106.5t-94 308.5z" />
<glyph unicode="&#xaa;" horiz-adv-x="663" d="M45 710q0 211 340 229v23q0 75 -53 75t-61 -68l-202 18q41 185 275 185q89 0 146.5 -28.5t78.5 -71.5t21 -148v-232q0 -116 18 -146h-179q-9 41 -12 86q-70 -98 -187 -98q-78 0 -131.5 44.5t-53.5 131.5zM258 731q0 -62 50 -62q77 0 77 153q-74 -1 -100.5 -24t-26.5 -67z " />
<glyph unicode="&#xab;" horiz-adv-x="907" d="M99 525l211 357h148l-125 -357l125 -358h-148zM448 525l210 357h149l-125 -357l125 -358h-149z" />
<glyph unicode="&#xac;" horiz-adv-x="1024" d="M68 327v268h887v-595h-297v327h-590z" />
<glyph unicode="&#xad;" horiz-adv-x="558" d="M76 407v221h407v-221h-407z" />
<glyph unicode="&#xae;" horiz-adv-x="1595" d="M82 683q0 291 210.5 499t504.5 208q295 0 505.5 -208t210.5 -499q0 -292 -210.5 -500t-505.5 -208t-505 208t-210 500zM257 683q0 -228 158.5 -388.5t381.5 -160.5t382 161.5t159 387.5q0 227 -158.5 387.5t-382.5 160.5q-222 0 -381 -161t-159 -387zM505 273v819h272 q103 0 165.5 -17.5t108.5 -79.5t46 -152q0 -153 -122 -214l152 -356h-242l-104 315h-54v-315h-222zM727 739h51q101 0 101 105q0 97 -108 97h-44v-202z" />
<glyph unicode="&#xaf;" horiz-adv-x="1024" d="M0 1482v182h1024v-182h-1024z" />
<glyph unicode="&#xb0;" d="M198 1061q0 134 95.5 229.5t230.5 95.5t230 -95.5t95 -229.5q0 -135 -96 -230.5t-229 -95.5q-134 0 -230 95.5t-96 230.5zM384 1061q0 -69 41.5 -116t98.5 -47t98 48t41 115q0 66 -40 114t-99 48q-57 0 -98.5 -47t-41.5 -115z" />
<glyph unicode="&#xb1;" d="M105 -23v216h837v-216h-837zM105 574v217h306v310h225v-310h306v-217h-306v-287h-225v287h-306z" />
<glyph unicode="&#xb2;" horiz-adv-x="698" d="M31 1090q44 287 308 287q142 0 215.5 -72.5t73.5 -171.5q0 -85 -63 -176t-289 -224h365l-17 -187h-590v178q246 190 302.5 262.5t56.5 136.5q0 81 -64 81q-79 0 -90 -151z" />
<glyph unicode="&#xb3;" horiz-adv-x="698" d="M16 797l203 30q8 -120 97 -120q88 0 88 91q0 97 -118 97h-70v150h70q108 0 108 85q0 81 -73 81q-69 0 -87 -99l-200 33q65 232 308 232q132 0 203.5 -62.5t71.5 -157.5q0 -121 -133 -180q150 -52 150 -197q0 -112 -83 -179t-219 -67q-282 0 -316 263z" />
<glyph unicode="&#xb4;" horiz-adv-x="942" d="M372 1203l341 314l112 -167l-369 -231z" />
<glyph unicode="&#xb5;" horiz-adv-x="977" d="M90 -342v1352h281v-515q0 -142 4.5 -194t32.5 -77.5t74 -25.5q45 0 73 24.5t32.5 75.5t4.5 197v515h282v-1010h-265v138q-19 -100 -50.5 -129.5t-76.5 -29.5q-47 0 -77.5 30t-49.5 129v-480h-265z" />
<glyph unicode="&#xb6;" horiz-adv-x="1117" d="M43 952q0 143 50.5 239.5t128.5 135t260 38.5h476v-1707h-160v1545h-97v-1545h-160v870h-71q-151 0 -237.5 36t-138 134t-51.5 254z" />
<glyph unicode="&#xb7;" horiz-adv-x="523" d="M122 375v302h279v-303z" />
<glyph unicode="&#xb8;" horiz-adv-x="942" d="M279 -357l33 83q97 -50 161 -50q73 0 73 61q0 38 -34 62t-83 24q-26 0 -67 -5l65 182h116l-40 -102q26 3 39 3q70 0 116.5 -43t46.5 -116q0 -76 -55 -123.5t-151 -47.5q-106 0 -220 72z" />
<glyph unicode="&#xb9;" horiz-adv-x="698" d="M128 546v161h147v412q-72 -57 -147 -88v190q123 56 201 151h171v-665h144v-161h-516z" />
<glyph unicode="&#xba;" horiz-adv-x="628" d="M35 853q0 319 279 319t279 -314q0 -324 -279 -324t-279 319zM254 853q0 -72 9 -122.5t52 -50.5q41 0 50 50.5t9 122.5q0 112 -15 142.5t-45 30.5q-39 0 -49.5 -44.5t-10.5 -128.5z" />
<glyph unicode="&#xbb;" horiz-adv-x="907" d="M99 167l125 358l-125 357h149l210 -357l-210 -358h-149zM448 167l125 358l-125 357h148l211 -357l-211 -358h-148z" />
<glyph unicode="&#xbc;" horiz-adv-x="1640" d="M105 546v161h147v412q-72 -57 -147 -88v190q123 56 201 151h171v-665h144v-161h-516zM415 0l647 1365h165l-651 -1365h-161zM938 185v155l304 491h234v-479h99v-167h-99v-185h-224v185h-314zM1090 330h183v313z" />
<glyph unicode="&#xbd;" horiz-adv-x="1640" d="M110 546v161h147v412q-72 -57 -147 -88v190q123 56 201 151h171v-665h144v-161h-516zM415 0l647 1365h165l-651 -1365h-161zM932 544q44 287 308 287q142 0 215.5 -72.5t73.5 -171.5q0 -85 -63 -176t-289 -224h365l-17 -187h-590v178q246 190 302.5 262.5t56.5 136.5 q0 81 -64 81q-79 0 -90 -151z" />
<glyph unicode="&#xbe;" horiz-adv-x="1640" d="M62 797l203 30q8 -120 97 -120q88 0 88 91q0 97 -118 97h-70v150h70q108 0 108 85q0 81 -73 81q-69 0 -87 -99l-200 33q65 232 308 232q132 0 203.5 -62.5t71.5 -157.5q0 -121 -133 -180q150 -52 150 -197q0 -112 -83 -179t-219 -67q-282 0 -316 263zM462 0l647 1365h165 l-651 -1365h-161zM949 185v155l304 491h234v-479h99v-167h-99v-185h-224v185h-314zM1101 330h183v313z" />
<glyph unicode="&#xbf;" horiz-adv-x="977" d="M97 6q0 119 46 199.5t155 178.5q77 68 93.5 103.5t16.5 131.5h240v-46q0 -128 -14.5 -182t-102.5 -139q-74 -73 -103 -125.5t-29 -126.5q0 -66 34.5 -99t82.5 -33q145 0 146 246l256 -36q-5 -207 -113.5 -331t-305.5 -124q-211 0 -306.5 115.5t-95.5 267.5zM395 719v291 l267 -1v-290h-267z" />
<glyph unicode="&#xc0;" d="M-40 0l410 1365h302l390 -1365h-307l-68 282h-384l-67 -282h-276zM234 1682l112 167l341 -314l-84 -84zM360 516h270l-137 557z" />
<glyph unicode="&#xc1;" d="M-40 0l410 1365h302l390 -1365h-307l-68 282h-384l-67 -282h-276zM360 516h270l-137 557zM378 1535l341 314l112 -167l-369 -231z" />
<glyph unicode="&#xc2;" d="M-40 0l410 1365h302l390 -1365h-307l-68 282h-384l-67 -282h-276zM120 1488l401 313l401 -313h-218l-183 118l-183 -118h-218zM360 516h270l-137 557z" />
<glyph unicode="&#xc3;" d="M-40 0l410 1365h302l390 -1365h-307l-68 282h-384l-67 -282h-276zM194 1564q111 143 219 143q50 0 132 -35q90 -39 122 -39q45 0 96 72l89 -66q-102 -153 -229 -153q-48 0 -126 35q-88 39 -122 39q-39 0 -95 -63zM360 516h270l-137 557z" />
<glyph unicode="&#xc4;" d="M-40 0l410 1365h302l390 -1365h-307l-68 282h-384l-67 -282h-276zM234 1601q0 45 33.5 76.5t80.5 31.5t80.5 -31.5t33.5 -76.5q0 -47 -35.5 -77t-78.5 -30q-41 0 -77.5 29t-36.5 78zM360 516h270l-137 557zM572 1601q0 45 33.5 76.5t80.5 31.5q48 0 81 -31.5t33 -76.5 q0 -48 -36 -77.5t-78 -29.5q-43 0 -78.5 30t-35.5 77z" />
<glyph unicode="&#xc5;" d="M-40 0l410 1365h302l390 -1365h-307l-68 282h-384l-67 -282h-276zM330 1644q0 83 58 139t135 56t135 -55.5t58 -139.5q0 -86 -60.5 -139t-132.5 -53t-132.5 53.5t-60.5 138.5zM360 516h270l-137 557zM446 1645q0 -36 24.5 -58.5t52.5 -22.5q29 0 53 22.5t24 58.5 q0 35 -23.5 58.5t-53.5 23.5t-53.5 -23.5t-23.5 -58.5z" />
<glyph unicode="&#xc6;" horiz-adv-x="1396" d="M-82 0l536 1365h924v-234h-505v-317h398v-235h-398v-335h505v-244h-793v316h-298l-110 -316h-259zM363 537h229v628z" />
<glyph unicode="&#xc7;" horiz-adv-x="1117" d="M80 681q0 331 131 518t389 187q427 0 465 -528l-274 -20q-11 304 -190 304q-94 0 -149.5 -98t-55.5 -380q0 -252 51 -346.5t153 -94.5q164 0 193 274l277 -17q-12 -196 -122 -339t-320 -162l-27 -84q26 3 40 3q73 0 120.5 -45.5t47.5 -118.5q0 -77 -56 -126.5t-156 -49.5 q-110 0 -227 74l34 91q98 -52 166 -52q65 0 65 58q0 36 -30.5 60t-87.5 24l-63 -1l61 172q-435 79 -435 697z" />
<glyph unicode="&#xc8;" horiz-adv-x="977" d="M129 0v1365h830v-234h-530v-317h412v-235h-412v-335h530v-244h-830zM265 1682l112 167l341 -314l-84 -84z" />
<glyph unicode="&#xc9;" horiz-adv-x="977" d="M129 0v1365h830v-234h-530v-317h412v-235h-412v-335h530v-244h-830zM383 1554l341 314l112 -167l-369 -231z" />
<glyph unicode="&#xca;" horiz-adv-x="977" d="M129 0v1365h830v-234h-530v-317h412v-235h-412v-335h530v-244h-830zM148 1488l401 313l401 -313h-218l-183 118l-183 -118h-218z" />
<glyph unicode="&#xcb;" horiz-adv-x="977" d="M129 0v1365h830v-234h-530v-317h412v-235h-412v-335h530v-244h-830zM260 1601q0 45 33.5 76.5t80.5 31.5t80.5 -31.5t33.5 -76.5q0 -47 -35.5 -77t-78.5 -30q-41 0 -77.5 29t-36.5 78zM598 1601q0 45 33.5 76.5t80.5 31.5q48 0 81 -31.5t33 -76.5q0 -48 -36 -77.5 t-78 -29.5q-43 0 -78.5 30t-35.5 77z" />
<glyph unicode="&#xcc;" horiz-adv-x="558" d="M6 1682l112 167l341 -314l-84 -84zM129 0v1365h300v-1365h-300z" />
<glyph unicode="&#xcd;" horiz-adv-x="558" d="M95 1535l341 314l112 -167l-369 -231zM129 0v1365h300v-1365h-300z" />
<glyph unicode="&#xce;" horiz-adv-x="558" d="M-122 1464l401 313l401 -313h-218l-183 118l-183 -118h-218zM129 0v1365h300v-1365h-300z" />
<glyph unicode="&#xcf;" horiz-adv-x="558" d="M-4 1601q0 45 33.5 76.5t80.5 31.5t80.5 -31.5t33.5 -76.5q0 -47 -35.5 -77t-78.5 -30q-41 0 -77.5 29t-36.5 78zM129 0v1365h300v-1365h-300zM334 1601q0 45 33.5 76.5t80.5 31.5q48 0 81 -31.5t33 -76.5q0 -48 -36 -77.5t-78 -29.5q-43 0 -78.5 30t-35.5 77z" />
<glyph unicode="&#xd0;" horiz-adv-x="1152" d="M13 589v204h116v572h323q211 0 342.5 -57t210 -209.5t78.5 -409.5q0 -184 -48 -327t-126 -224.5t-176 -109.5t-245 -28h-359v589h-116zM429 235h51q104 0 161 39.5t91.5 140t34.5 287.5q0 174 -38 268t-95 127.5t-154 33.5h-51v-338h200v-204h-200v-354z" />
<glyph unicode="&#xd1;" horiz-adv-x="1151" d="M118 0v1365h333l351 -848v848h232v-1365h-268l-416 988v-988h-232zM262 1563q111 143 219 143q50 0 132 -35q90 -39 122 -39q45 0 96 72l89 -66q-102 -153 -229 -153q-48 0 -126 35q-88 39 -122 39q-39 0 -95 -63z" />
<glyph unicode="&#xd2;" horiz-adv-x="1151" d="M80 683q0 703 495 703q242 0 369 -176t127 -527q0 -704 -495 -704q-246 0 -371 179.5t-125 524.5zM294 1701l112 167l341 -314l-84 -84zM396 683q0 -270 42.5 -365t136.5 -95q93 0 136.5 91t43.5 369q0 276 -43 367.5t-137 91.5q-93 0 -136 -92t-43 -367z" />
<glyph unicode="&#xd3;" horiz-adv-x="1151" d="M80 683q0 703 495 703q242 0 369 -176t127 -527q0 -704 -495 -704q-246 0 -371 179.5t-125 524.5zM396 683q0 -270 42.5 -365t136.5 -95q93 0 136.5 91t43.5 369q0 276 -43 367.5t-137 91.5q-93 0 -136 -92t-43 -367zM404 1554l341 314l112 -167l-369 -231z" />
<glyph unicode="&#xd4;" horiz-adv-x="1151" d="M80 683q0 703 495 703q242 0 369 -176t127 -527q0 -704 -495 -704q-246 0 -371 179.5t-125 524.5zM182 1464l401 313l401 -313h-218l-183 118l-183 -118h-218zM396 683q0 -270 42.5 -365t136.5 -95q93 0 136.5 91t43.5 369q0 276 -43 367.5t-137 91.5q-93 0 -136 -92 t-43 -367z" />
<glyph unicode="&#xd5;" horiz-adv-x="1151" d="M80 683q0 703 495 703q242 0 369 -176t127 -527q0 -704 -495 -704q-246 0 -371 179.5t-125 524.5zM247 1564q111 143 219 143q50 0 132 -35q90 -39 122 -39q45 0 96 72l89 -66q-102 -153 -229 -153q-48 0 -126 35q-88 39 -122 39q-39 0 -95 -63zM396 683 q0 -270 42.5 -365t136.5 -95q93 0 136.5 91t43.5 369q0 276 -43 367.5t-137 91.5q-93 0 -136 -92t-43 -367z" />
<glyph unicode="&#xd6;" horiz-adv-x="1151" d="M80 683q0 703 495 703q242 0 369 -176t127 -527q0 -704 -495 -704q-246 0 -371 179.5t-125 524.5zM300 1601q0 45 33.5 76.5t80.5 31.5t80.5 -31.5t33.5 -76.5q0 -47 -35.5 -77t-78.5 -30q-41 0 -77.5 29t-36.5 78zM396 683q0 -270 42.5 -365t136.5 -95q93 0 136.5 91 t43.5 369q0 276 -43 367.5t-137 91.5q-93 0 -136 -92t-43 -367zM638 1601q0 45 33.5 76.5t80.5 31.5q48 0 81 -31.5t33 -76.5q0 -48 -36 -77.5t-78 -29.5q-43 0 -78.5 30t-35.5 77z" />
<glyph unicode="&#xd7;" d="M131 450l232 233l-232 232l159 160l233 -233l233 233l160 -160l-233 -232l233 -233l-160 -159l-233 232l-233 -232z" />
<glyph unicode="&#xd8;" horiz-adv-x="1151" d="M80 683q0 703 495 703q141 0 246 -61l62 119h157l-110 -217q141 -173 141 -544q0 -704 -496 -704q-124 0 -238 55l-62 -118h-157l107 215q-145 181 -145 552zM368 683q0 -157 15 -248l315 672q-50 52 -123 52q-99 0 -153 -89.5t-54 -386.5zM457 244q48 -40 127 -40 q108 0 153.5 111.5t45.5 411.5q0 96 -14 193z" />
<glyph unicode="&#xd9;" horiz-adv-x="1186" d="M129 585v780h300v-780q0 -165 15 -230t62.5 -98.5t116.5 -33.5q75 0 119 37t54 98t10 227v780h251v-768q0 -230 -26.5 -343t-135 -194t-298.5 -81q-178 0 -280 59.5t-145 167t-43 379.5zM325 1682l112 167l341 -314l-84 -84z" />
<glyph unicode="&#xda;" horiz-adv-x="1186" d="M129 585v780h300v-780q0 -165 15 -230t62.5 -98.5t116.5 -33.5q75 0 119 37t54 98t10 227v780h251v-768q0 -230 -26.5 -343t-135 -194t-298.5 -81q-178 0 -280 59.5t-145 167t-43 379.5zM437 1535l341 314l112 -167l-369 -231z" />
<glyph unicode="&#xdb;" horiz-adv-x="1186" d="M116 1481l401 313l401 -313h-218l-183 118l-183 -118h-218zM129 585v780h300v-780q0 -165 15 -230t62.5 -98.5t116.5 -33.5q75 0 119 37t54 98t10 227v780h251v-768q0 -230 -26.5 -343t-135 -194t-298.5 -81q-178 0 -280 59.5t-145 167t-43 379.5z" />
<glyph unicode="&#xdc;" horiz-adv-x="1186" d="M129 585v780h300v-780q0 -165 15 -230t62.5 -98.5t116.5 -33.5q75 0 119 37t54 98t10 227v780h251v-768q0 -230 -26.5 -343t-135 -194t-298.5 -81q-178 0 -280 59.5t-145 167t-43 379.5zM317 1601q0 45 33.5 76.5t80.5 31.5t80.5 -31.5t33.5 -76.5q0 -47 -35.5 -77 t-78.5 -30q-41 0 -77.5 29t-36.5 78zM655 1601q0 45 33.5 76.5t80.5 31.5q48 0 81 -31.5t33 -76.5q0 -48 -36 -77.5t-78 -29.5q-43 0 -78.5 30t-35.5 77z" />
<glyph unicode="&#xdd;" horiz-adv-x="907" d="M-58 1365h330l193 -498l206 498h293l-379 -788v-577h-300v577zM305 1535l341 314l112 -167l-369 -231z" />
<glyph unicode="&#xde;" d="M129 0v1365h300v-186h93q179 0 278 -30.5t165.5 -136t66.5 -260.5q0 -150 -54 -248t-149.5 -141.5t-293.5 -43.5h-106v-319h-300zM429 554h93q121 0 157.5 55.5t36.5 149.5q0 77 -27.5 124.5t-64 61t-102.5 13.5h-93v-404z" />
<glyph unicode="&#xdf;" horiz-adv-x="1116" d="M20 916h112q0 252 125 391.5t356 139.5q178 0 266 -87t88 -208q0 -230 -305 -326q16 -31 125 -77q186 -80 246 -172t60 -213q0 -177 -106.5 -281t-275.5 -104q-110 0 -224 42l68 191q82 -38 151 -38q135 0 135 135q0 64 -34 102t-131 96q-106 64 -153 122.5t-47 137.5 q0 73 37 169q191 28 191 172q0 65 -36.5 104t-100.5 39q-58 0 -95.5 -36t-48 -92.5t-10.5 -197.5v-1043h-281v813h-112v221z" />
<glyph unicode="&#xe0;" horiz-adv-x="977" d="M73 255q0 169 112 261.5t408 110.5v38q0 101 -20.5 140t-79.5 39q-108 0 -119 -155l-267 26q19 152 129.5 234t278.5 82q142 0 228 -54.5t108.5 -126.5t22.5 -223v-403q0 -188 17 -224h-261q-14 41 -14 155q-93 -176 -277 -176q-118 0 -192 70.5t-74 205.5zM217 1350 l112 167l341 -314l-84 -84zM365 292q0 -128 94 -128q51 0 92.5 57.5t41.5 211.5v50q-123 -14 -175.5 -54.5t-52.5 -136.5z" />
<glyph unicode="&#xe1;" horiz-adv-x="977" d="M73 255q0 169 112 261.5t408 110.5v38q0 101 -20.5 140t-79.5 39q-108 0 -119 -155l-267 26q19 152 129.5 234t278.5 82q142 0 228 -54.5t108.5 -126.5t22.5 -223v-403q0 -188 17 -224h-261q-14 41 -14 155q-93 -176 -277 -176q-118 0 -192 70.5t-74 205.5zM364 1203 l341 314l112 -167l-369 -231zM365 292q0 -128 94 -128q51 0 92.5 57.5t41.5 211.5v50q-123 -14 -175.5 -54.5t-52.5 -136.5z" />
<glyph unicode="&#xe2;" horiz-adv-x="977" d="M56 1132l401 313l401 -313h-218l-183 118l-183 -118h-218zM73 255q0 169 112 261.5t408 110.5v38q0 101 -20.5 140t-79.5 39q-108 0 -119 -155l-267 26q19 152 129.5 234t278.5 82q142 0 228 -54.5t108.5 -126.5t22.5 -223v-403q0 -188 17 -224h-261q-14 41 -14 155 q-93 -176 -277 -176q-118 0 -192 70.5t-74 205.5zM365 292q0 -128 94 -128q51 0 92.5 57.5t41.5 211.5v50q-123 -14 -175.5 -54.5t-52.5 -136.5z" />
<glyph unicode="&#xe3;" horiz-adv-x="977" d="M73 255q0 169 112 261.5t408 110.5v38q0 101 -20.5 140t-79.5 39q-108 0 -119 -155l-267 26q19 152 129.5 234t278.5 82q142 0 228 -54.5t108.5 -126.5t22.5 -223v-403q0 -188 17 -224h-261q-14 41 -14 155q-93 -176 -277 -176q-118 0 -192 70.5t-74 205.5zM181 1244 q111 143 219 143q50 0 132 -35q90 -39 122 -39q45 0 96 72l89 -66q-102 -153 -229 -153q-48 0 -126 35q-88 39 -122 39q-39 0 -95 -63zM365 292q0 -128 94 -128q51 0 92.5 57.5t41.5 211.5v50q-123 -14 -175.5 -54.5t-52.5 -136.5z" />
<glyph unicode="&#xe4;" horiz-adv-x="977" d="M73 255q0 169 112 261.5t408 110.5v38q0 101 -20.5 140t-79.5 39q-108 0 -119 -155l-267 26q19 152 129.5 234t278.5 82q142 0 228 -54.5t108.5 -126.5t22.5 -223v-403q0 -188 17 -224h-261q-14 41 -14 155q-93 -176 -277 -176q-118 0 -192 70.5t-74 205.5zM227 1269 q0 45 33.5 76.5t80.5 31.5t80.5 -31.5t33.5 -76.5q0 -47 -35.5 -77t-78.5 -30q-41 0 -77.5 29t-36.5 78zM365 292q0 -128 94 -128q51 0 92.5 57.5t41.5 211.5v50q-123 -14 -175.5 -54.5t-52.5 -136.5zM565 1269q0 45 33.5 76.5t80.5 31.5q48 0 81 -31.5t33 -76.5 q0 -48 -36 -77.5t-78 -29.5q-43 0 -78.5 30t-35.5 77z" />
<glyph unicode="&#xe5;" horiz-adv-x="977" d="M73 255q0 169 112 261.5t408 110.5v38q0 101 -20.5 140t-79.5 39q-108 0 -119 -155l-267 26q19 152 129.5 234t278.5 82q142 0 228 -54.5t108.5 -126.5t22.5 -223v-403q0 -188 17 -224h-261q-14 41 -14 155q-93 -176 -277 -176q-118 0 -192 70.5t-74 205.5zM320 1301 q0 83 58 139t135 56t135 -55.5t58 -139.5q0 -86 -60.5 -139t-132.5 -53t-132.5 53.5t-60.5 138.5zM365 292q0 -128 94 -128q51 0 92.5 57.5t41.5 211.5v50q-123 -14 -175.5 -54.5t-52.5 -136.5zM436 1302q0 -36 24.5 -58.5t52.5 -22.5q29 0 53 22.5t24 58.5q0 35 -23.5 58.5 t-53.5 23.5t-53.5 -23.5t-23.5 -58.5z" />
<glyph unicode="&#xe6;" horiz-adv-x="1430" d="M73 263q0 86 39.5 167t133.5 129t327 69q2 47 2 66q0 97 -32.5 123.5t-74.5 26.5q-114 0 -125 -163l-245 28q51 322 385 322q176 0 242 -104q97 103 250 103q144 0 232 -71.5t125.5 -185t37.5 -315.5h-523q-1 -30 -1 -46q0 -238 134 -238q121 0 139 169l242 -17 q-60 -347 -380 -347q-210 0 -290 172q-107 -172 -325 -172q-139 0 -216 78t-77 206zM354 297q0 -132 94 -132q126 0 126 239q0 27 -1 79q-141 -18 -180 -65t-39 -121zM846 621h260q-3 223 -129 223q-121 0 -131 -223z" />
<glyph unicode="&#xe7;" horiz-adv-x="907" d="M60 502q0 258 108.5 393t304.5 135q354 0 385 -392l-262 -10q-6 93 -30 140.5t-81 47.5q-142 0 -142 -298q0 -173 34.5 -242t102.5 -69q106 0 116 187l262 -17q-34 -364 -352 -397l-32 -82q26 3 40 3q70 0 116.5 -44t46.5 -115q0 -76 -55 -123.5t-152 -47.5 q-106 0 -220 72l34 88q96 -55 162 -55q71 0 71 61q0 38 -33.5 62t-83.5 24q-26 0 -67 -5l60 165q-333 54 -333 519z" />
<glyph unicode="&#xe8;" horiz-adv-x="942" d="M60 490q0 263 113.5 401.5t304.5 138.5q172 0 287.5 -122.5t115.5 -449.5h-530v-56q0 -136 37 -182t97 -46q129 0 145 173l251 -16q-67 -352 -401 -352q-206 0 -313 139t-107 372zM198 1350l112 167l341 -314l-84 -84zM353 621h262q1 18 1 28q0 195 -132 195 q-130 0 -131 -223z" />
<glyph unicode="&#xe9;" horiz-adv-x="942" d="M60 490q0 263 113.5 401.5t304.5 138.5q172 0 287.5 -122.5t115.5 -449.5h-530v-56q0 -136 37 -182t97 -46q129 0 145 173l251 -16q-67 -352 -401 -352q-206 0 -313 139t-107 372zM338 1203l341 314l112 -167l-369 -231zM353 621h262q1 18 1 28q0 195 -132 195 q-130 0 -131 -223z" />
<glyph unicode="&#xea;" horiz-adv-x="942" d="M60 490q0 263 113.5 401.5t304.5 138.5q172 0 287.5 -122.5t115.5 -449.5h-530v-56q0 -136 37 -182t97 -46q129 0 145 173l251 -16q-67 -352 -401 -352q-206 0 -313 139t-107 372zM90 1132l401 313l401 -313h-218l-183 118l-183 -118h-218zM353 621h262q1 18 1 28 q0 195 -132 195q-130 0 -131 -223z" />
<glyph unicode="&#xeb;" horiz-adv-x="942" d="M60 490q0 263 113.5 401.5t304.5 138.5q172 0 287.5 -122.5t115.5 -449.5h-530v-56q0 -136 37 -182t97 -46q129 0 145 173l251 -16q-67 -352 -401 -352q-206 0 -313 139t-107 372zM208 1269q0 45 33.5 76.5t80.5 31.5t80.5 -31.5t33.5 -76.5q0 -47 -35.5 -77t-78.5 -30 q-41 0 -77.5 29t-36.5 78zM353 621h262q1 18 1 28q0 195 -132 195q-130 0 -131 -223zM546 1269q0 45 33.5 76.5t80.5 31.5q48 0 81 -31.5t33 -76.5q0 -48 -36 -77.5t-78 -29.5q-43 0 -78.5 30t-35.5 77z" />
<glyph unicode="&#xec;" horiz-adv-x="488" d="M-49 1350l112 167l341 -314l-84 -84zM103 0v1010h282v-1010h-282z" />
<glyph unicode="&#xed;" horiz-adv-x="488" d="M85 1203l341 314l112 -167l-369 -231zM103 0v1010h282v-1010h-282z" />
<glyph unicode="&#xee;" horiz-adv-x="488" d="M-157 1132l401 313l401 -313h-218l-183 118l-183 -118h-218zM103 0v1010h282v-1010h-282z" />
<glyph unicode="&#xef;" horiz-adv-x="488" d="M-39 1269q0 45 33.5 76.5t80.5 31.5t80.5 -31.5t33.5 -76.5q0 -47 -35.5 -77t-78.5 -30q-41 0 -77.5 29t-36.5 78zM103 0v1010h282v-1010h-282zM299 1269q0 45 33.5 76.5t80.5 31.5q48 0 81 -31.5t33 -76.5q0 -48 -36 -77.5t-78 -29.5q-43 0 -78.5 30t-35.5 77z" />
<glyph unicode="&#xf0;" horiz-adv-x="942" d="M61 505q0 260 100.5 392t244.5 132q73 0 132 -46q-34 101 -80 181l-139 -83l-61 102l141 85l-70 113l159 96l75 -111l132 80l61 -103l-128 -76q254 -405 254 -779q0 -230 -97.5 -369.5t-307.5 -139.5q-416 0 -416 526zM352 505q0 -185 24 -257t96 -72q69 0 94 71.5 t25 257.5q0 193 -26.5 261t-92.5 68q-64 0 -92 -64.5t-28 -264.5z" />
<glyph unicode="&#xf1;" horiz-adv-x="977" d="M104 0v1010h267v-138q70 158 253 158q99 0 163.5 -44.5t82.5 -113.5t18 -210v-662h-282v662q0 102 -26 126t-70 24q-76 0 -100 -46.5t-24 -173.5v-592h-282zM153 1244q111 143 219 143q50 0 132 -35q90 -39 122 -39q45 0 96 72l89 -66q-102 -153 -229 -153q-48 0 -126 35 q-88 39 -122 39q-39 0 -95 -63z" />
<glyph unicode="&#xf2;" horiz-adv-x="942" d="M61 505q0 525 411 525q410 0 410 -525q0 -526 -410 -526q-411 0 -411 526zM185 1350l112 167l341 -314l-84 -84zM352 505q0 -185 24 -257t96 -72q69 0 94 71.5t25 257.5q0 193 -26.5 261t-92.5 68q-64 0 -92 -64.5t-28 -264.5z" />
<glyph unicode="&#xf3;" horiz-adv-x="942" d="M61 505q0 525 411 525q410 0 410 -525q0 -526 -410 -526q-411 0 -411 526zM325 1203l341 314l112 -167l-369 -231zM352 505q0 -185 24 -257t96 -72q69 0 94 71.5t25 257.5q0 193 -26.5 261t-92.5 68q-64 0 -92 -64.5t-28 -264.5z" />
<glyph unicode="&#xf4;" horiz-adv-x="942" d="M61 505q0 525 411 525q410 0 410 -525q0 -526 -410 -526q-411 0 -411 526zM70 1132l401 313l401 -313h-218l-183 118l-183 -118h-218zM352 505q0 -185 24 -257t96 -72q69 0 94 71.5t25 257.5q0 193 -26.5 261t-92.5 68q-64 0 -92 -64.5t-28 -264.5z" />
<glyph unicode="&#xf5;" horiz-adv-x="942" d="M61 505q0 525 411 525q410 0 410 -525q0 -526 -410 -526q-411 0 -411 526zM142 1244q111 143 219 143q50 0 132 -35q90 -39 122 -39q45 0 96 72l89 -66q-102 -153 -229 -153q-48 0 -126 35q-88 39 -122 39q-39 0 -95 -63zM352 505q0 -185 24 -257t96 -72q69 0 94 71.5 t25 257.5q0 193 -26.5 261t-92.5 68q-64 0 -92 -64.5t-28 -264.5z" />
<glyph unicode="&#xf6;" horiz-adv-x="942" d="M61 505q0 525 411 525q410 0 410 -525q0 -526 -410 -526q-411 0 -411 526zM188 1269q0 45 33.5 76.5t80.5 31.5t80.5 -31.5t33.5 -76.5q0 -47 -35.5 -77t-78.5 -30q-41 0 -77.5 29t-36.5 78zM352 505q0 -185 24 -257t96 -72q69 0 94 71.5t25 257.5q0 193 -26.5 261 t-92.5 68q-64 0 -92 -64.5t-28 -264.5zM526 1269q0 45 33.5 76.5t80.5 31.5q48 0 81 -31.5t33 -76.5q0 -48 -36 -77.5t-78 -29.5q-43 0 -78.5 30t-35.5 77z" />
<glyph unicode="&#xf7;" d="M105 574v217h837v-217h-837zM403 210v271h242v-271h-242zM403 885v270h242v-270h-242z" />
<glyph unicode="&#xf8;" horiz-adv-x="942" d="M61 505q0 525 411 525q107 0 190 -35l60 120h134l-97 -193q123 -135 123 -417q0 -526 -410 -526q-100 0 -180 31l-64 -127h-133l98 195q-132 137 -132 427zM312 505q0 -98 10 -201l242 521q-45 23 -89 23q-96 0 -129.5 -75.5t-33.5 -267.5zM391 176q35 -14 81 -14 q98 0 128.5 81.5t30.5 261.5q0 77 -7 176z" />
<glyph unicode="&#xf9;" horiz-adv-x="977" d="M90 353v657h282v-648q0 -98 18 -131t78 -33q55 0 83.5 27t34.5 74.5t6 195.5v515h282v-1010h-265v138q-60 -103 -119.5 -131t-140.5 -28q-109 0 -167 45t-75 114t-17 215zM189 1350l112 167l341 -314l-84 -84z" />
<glyph unicode="&#xfa;" horiz-adv-x="977" d="M90 353v657h282v-648q0 -98 18 -131t78 -33q55 0 83.5 27t34.5 74.5t6 195.5v515h282v-1010h-265v138q-60 -103 -119.5 -131t-140.5 -28q-109 0 -167 45t-75 114t-17 215zM329 1203l341 314l112 -167l-369 -231z" />
<glyph unicode="&#xfb;" horiz-adv-x="977" d="M81 1132l401 313l401 -313h-218l-183 118l-183 -118h-218zM90 353v657h282v-648q0 -98 18 -131t78 -33q55 0 83.5 27t34.5 74.5t6 195.5v515h282v-1010h-265v138q-60 -103 -119.5 -131t-140.5 -28q-109 0 -167 45t-75 114t-17 215z" />
<glyph unicode="&#xfc;" horiz-adv-x="977" d="M90 353v657h282v-648q0 -98 18 -131t78 -33q55 0 83.5 27t34.5 74.5t6 195.5v515h282v-1010h-265v138q-60 -103 -119.5 -131t-140.5 -28q-109 0 -167 45t-75 114t-17 215zM199 1269q0 45 33.5 76.5t80.5 31.5t80.5 -31.5t33.5 -76.5q0 -47 -35.5 -77t-78.5 -30 q-41 0 -77.5 29t-36.5 78zM537 1269q0 45 33.5 76.5t80.5 31.5q48 0 81 -31.5t33 -76.5q0 -48 -36 -77.5t-78 -29.5q-43 0 -78.5 30t-35.5 77z" />
<glyph unicode="&#xfd;" horiz-adv-x="733" d="M-28 1010h282l136 -617l131 617h243l-304 -1026q-44 -147 -75 -206t-93 -97.5t-158 -38.5q-59 0 -120 16v222q42 -6 79 -6q82 0 112.5 27t57.5 118zM236 1203l341 314l112 -167l-369 -231z" />
<glyph unicode="&#xfe;" horiz-adv-x="977" d="M104 -342v1707h277v-483q85 141 219 141q139 0 228 -129t89 -372q0 -266 -90 -401t-252 -135q-116 0 -189 89l-5 -417h-277zM381 413q0 -145 23.5 -188.5t95.5 -43.5q64 0 95 58t31 281q0 194 -27 256t-86 62q-64 0 -98 -59.5t-34 -174.5v-191z" />
<glyph unicode="&#xff;" horiz-adv-x="733" d="M-28 1010h282l136 -617l131 617h243l-304 -1026q-44 -147 -75 -206t-93 -97.5t-158 -38.5q-59 0 -120 16v222q42 -6 79 -6q82 0 112.5 27t57.5 118zM97 1269q0 45 33.5 76.5t80.5 31.5t80.5 -31.5t33.5 -76.5q0 -47 -35.5 -77t-78.5 -30q-41 0 -77.5 29t-36.5 78z M435 1269q0 45 33.5 76.5t80.5 31.5q48 0 81 -31.5t33 -76.5q0 -48 -36 -77.5t-78 -29.5q-43 0 -78.5 30t-35.5 77z" />
<glyph unicode="&#x131;" horiz-adv-x="488" d="M103 0v1010h282v-1010h-282z" />
<glyph unicode="&#x152;" horiz-adv-x="1605" d="M80 648q0 388 136 563t390 175q77 0 186 -21h795v-234h-536v-317h419v-235h-419v-335h536v-244h-812q-106 -21 -180 -21q-139 0 -259.5 65t-188 236.5t-67.5 367.5zM396 661q0 -438 219 -438q91 0 148 51v814q-56 54 -153 54q-137 0 -175.5 -143.5t-38.5 -337.5z" />
<glyph unicode="&#x153;" horiz-adv-x="1465" d="M61 505q0 525 404 525q183 0 279 -117q96 117 258 117q141 0 235 -74.5t131 -192t37 -305.5h-536q-1 -35 -1 -56q0 -136 39.5 -182t102.5 -46q127 0 144 173l251 -16q-74 -352 -395 -352q-170 0 -278 109q-93 -109 -270 -109q-200 0 -300.5 135t-100.5 391zM352 505 q0 -185 24.5 -257t94.5 -72q71 0 95.5 73t24.5 256q0 191 -26.5 260t-93.5 69q-64 0 -91.5 -64.5t-27.5 -264.5zM871 621h269v29q0 194 -132 194q-136 0 -137 -223z" />
<glyph unicode="&#x178;" horiz-adv-x="907" d="M-58 1365h330l193 -498l206 498h293l-379 -788v-577h-300v577zM171 1601q0 45 33.5 76.5t80.5 31.5t80.5 -31.5t33.5 -76.5q0 -47 -35.5 -77t-78.5 -30q-41 0 -77.5 29t-36.5 78zM509 1601q0 45 33.5 76.5t80.5 31.5q48 0 81 -31.5t33 -76.5q0 -48 -36 -77.5t-78 -29.5 q-43 0 -78.5 30t-35.5 77z" />
<glyph unicode="&#x2c6;" horiz-adv-x="942" d="M70 1132l401 313l401 -313h-218l-183 118l-183 -118h-218z" />
<glyph unicode="&#x2da;" horiz-adv-x="942" d="M278 1301q0 83 58 139t135 56t135 -55.5t58 -139.5q0 -86 -60.5 -139t-132.5 -53t-132.5 53.5t-60.5 138.5zM394 1302q0 -36 24.5 -58.5t52.5 -22.5q29 0 53 22.5t24 58.5q0 35 -23.5 58.5t-53.5 23.5t-53.5 -23.5t-23.5 -58.5z" />
<glyph unicode="&#x2dc;" horiz-adv-x="942" d="M142 1244q111 143 219 143q50 0 132 -35q90 -39 122 -39q45 0 96 72l89 -66q-102 -153 -229 -153q-48 0 -126 35q-88 39 -122 39q-39 0 -95 -63z" />
<glyph unicode="&#x2000;" horiz-adv-x="934" />
<glyph unicode="&#x2001;" horiz-adv-x="1868" />
<glyph unicode="&#x2002;" horiz-adv-x="934" />
<glyph unicode="&#x2003;" horiz-adv-x="1868" />
<glyph unicode="&#x2004;" horiz-adv-x="622" />
<glyph unicode="&#x2005;" horiz-adv-x="467" />
<glyph unicode="&#x2006;" horiz-adv-x="311" />
<glyph unicode="&#x2007;" horiz-adv-x="311" />
<glyph unicode="&#x2008;" horiz-adv-x="233" />
<glyph unicode="&#x2009;" horiz-adv-x="373" />
<glyph unicode="&#x200a;" horiz-adv-x="103" />
<glyph unicode="&#x2010;" horiz-adv-x="558" d="M76 407v221h407v-221h-407z" />
<glyph unicode="&#x2011;" horiz-adv-x="558" d="M76 407v221h407v-221h-407z" />
<glyph unicode="&#x2012;" horiz-adv-x="558" d="M76 407v221h407v-221h-407z" />
<glyph unicode="&#x2013;" horiz-adv-x="907" d="M81 413v209h744v-209h-744z" />
<glyph unicode="&#x2014;" horiz-adv-x="1361" d="M76 413v209h1209v-209h-1209z" />
<glyph unicode="&#x2018;" horiz-adv-x="488" d="M116 819v302l146 268h110l-113 -268h113v-302h-256z" />
<glyph unicode="&#x2019;" horiz-adv-x="488" d="M116 795l113 268h-113v302h256v-302l-146 -268h-110z" />
<glyph unicode="&#x201a;" horiz-adv-x="489" d="M116 0v302h256v-302l-146 -268h-110l113 268h-113z" />
<glyph unicode="&#x201c;" horiz-adv-x="872" d="M133 819v302l146 268h110l-113 -268h113v-302h-256zM482 819v302l146 268h110l-113 -268h113v-302h-256z" />
<glyph unicode="&#x201d;" horiz-adv-x="872" d="M133 795l113 268h-113v302h256v-302l-146 -268h-110zM482 795l112 268h-112v302h256v-302l-146 -268h-110z" />
<glyph unicode="&#x201e;" horiz-adv-x="872" d="M133 0v302h256v-302l-146 -267h-110l113 267h-113zM482 0v302h256v-302l-146 -267h-110l112 267h-112z" />
<glyph unicode="&#x2022;" horiz-adv-x="1365" d="M401 696q0 118 82.5 202t201.5 84q114 0 196.5 -83.5t82.5 -202.5q0 -118 -82.5 -202t-198.5 -84t-199 84.5t-83 201.5z" />
<glyph unicode="&#x2026;" horiz-adv-x="1570" d="M122 0v302h279v-302h-279zM645 0v302h280v-302h-280zM1169 0v302h279v-302h-279z" />
<glyph unicode="&#x202f;" horiz-adv-x="373" />
<glyph unicode="&#x2039;" horiz-adv-x="558" d="M99 525l211 357h148l-125 -357l125 -358h-148z" />
<glyph unicode="&#x203a;" horiz-adv-x="559" d="M100 167l125 358l-125 357h149l210 -357l-210 -358h-149z" />
<glyph unicode="&#x205f;" horiz-adv-x="467" />
<glyph unicode="&#x20ac;" d="M8 477v154h96q-2 13 -2 45l2 76h-96v153h115q43 235 162 359.5t303 124.5q176 0 292 -96t154 -279l-256 -66q-37 195 -186 195q-157 0 -186 -238h219v-153h-232l-2 -25v-96h234v-154h-224q32 -256 187 -256q76 0 118.5 41t69.5 137l256 -57q-52 -193 -152.5 -280 t-291.5 -87q-192 0 -313 129t-158 373h-109z" />
<glyph unicode="&#x2122;" horiz-adv-x="1500" d="M27 1179v145h511v-145h-168v-633h-180v633h-163zM600 546v778h269l111 -477l126 477h261v-778h-169v648l-168 -648h-130l-153 648v-648h-147z" />
<glyph unicode="&#x2215;" horiz-adv-x="176" d="M-318 0l647 1365h165l-651 -1365h-161z" />
<glyph unicode="&#xe000;" horiz-adv-x="1010" d="M0 1010h1010v-1010h-1010v1010z" />
<glyph unicode="&#xf003;" horiz-adv-x="698" d="M28 731v155l304 491h234v-479h99v-167h-99v-185h-224v185h-314zM180 876h183v313z" />
<glyph unicode="&#xfb01;" horiz-adv-x="1081" d="M37 788v222h115q3 158 21.5 222.5t89 125.5t219.5 61q57 0 113 -8v-220q-29 2 -47 2q-72 0 -95 -24.5t-27 -51.5t-4 -107h178v-222h-178v-788h-270v788h-115zM694 1093v279h286v-279h-286zM696 0v1010h282v-1010h-282z" />
<glyph unicode="&#xfb02;" horiz-adv-x="1081" d="M37 788v222h115q3 158 21.5 222.5t89 125.5t219.5 61q57 0 113 -8v-220q-29 2 -47 2q-72 0 -95 -24.5t-27 -51.5t-4 -107h178v-222h-178v-788h-270v788h-115zM696 0v1365h282v-1365h-282z" />
<glyph unicode="&#xfb03;" horiz-adv-x="1674" d="M37 788v222h115q1 149 23 223t95 130t199 56q74 0 142 -10v-220q-34 4 -63 4q-81 0 -103.5 -34.5t-22.5 -148.5h178v-222h-178v-788h-270v788h-115zM630 788v222h115q1 149 23 223t95 130t199 56q74 0 142 -10v-220q-34 4 -63 4q-81 0 -103.5 -34.5t-22.5 -148.5h178 v-222h-178v-788h-270v788h-115zM1287 1093v279h286v-279h-286zM1289 0v1010h282v-1010h-282z" />
<glyph unicode="&#xfb04;" horiz-adv-x="1674" d="M37 788v222h115q1 149 23 223t95 130t199 56q74 0 142 -10v-220q-34 4 -63 4q-81 0 -103.5 -34.5t-22.5 -148.5h178v-222h-178v-788h-270v788h-115zM630 788v222h115q1 149 23 223t95 130t199 56q74 0 142 -10v-220q-34 4 -63 4q-81 0 -103.5 -34.5t-22.5 -148.5h178 v-222h-178v-788h-270v788h-115zM1289 0v1365h282v-1365h-282z" />
</font>
</defs>
</svg>
